<?xml version="1.0" encoding="utf-8"?>
<!-- Generator: Adobe Illustrator 15.0.2, SVG Export Plug-In  -->
<!DOCTYPE svg PUBLIC "-//W3C//DTD SVG 1.1//EN" "http://www.w3.org/Graphics/SVG/1.1/DTD/svg11.dtd" [
	<!ENTITY ns_flows "http://ns.adobe.com/Flows/1.0/">
]>
<svg version="1.1"
	 xmlns="http://www.w3.org/2000/svg" xmlns:xlink="http://www.w3.org/1999/xlink" xmlns:a="http://ns.adobe.com/AdobeSVGViewerExtensions/3.0/"
	 x="0px" y="0px" width="126px" height="201px" viewBox="-0.5 -0.999 126 201"
	 overflow="visible" enable-background="new -0.5 -0.999 126 201" xml:space="preserve">
<defs>
</defs>
<path fill="#EE9BC3" d="M124.738,23.218c-1.037-4.531-1.736-8.599-4.912-10.903c-3.812-2.767-10.873-2.059-13.446,1.298
	c-3.089,4.031-5.049,9.052-6.723,14.538c-1.068,3.501-0.97,7.079-2.068,10.383c-1.674,5.03-3.354,10.297-5.43,15.316
	c-0.882,2.132-2.104,4.553-2.586,7.009c-2.537-0.937-4.239-4.225-6.464-5.711c-4.729-3.157-12.783-4.064-18.101-0.778
	c-1.317,0.814-2.52,2.027-3.879,2.855c-0.086,0.086-0.172,0.173-0.258,0.26c-0.667-1-1.618-1.372-2.586-2.077
	c-6.334-4.613-13.535-5.911-20.944-1.298c-1.346,0.838-2.759,1.292-3.62,2.596c-2.128-0.566-3.244-6.126-4.138-8.307
	c-1.14-2.781-2.53-6.02-3.361-9.086c-0.996-3.675-0.737-7.859-1.551-11.422c-0.777-3.397-0.155-11.364-1.552-13.759v-0.259
	c-0.736,0.561,0.232,7.231,0.259,9.345c0.083,6.464,0.746,12.242,2.586,17.912c0.511,1.575,0.41,3.254,1.293,4.413
	c-0.208,1.049-0.542,1.137-1.293,1.558c0.485,1.021,1.553,1.116,2.327,1.817c0.517,1.904,1.034,3.808,1.551,5.711
	c0.79,2.151,2.304,4.642,2.844,6.75c0.496,1.936-2.904,11.744-3.62,13.239c-1.886-0.205-1.992-1.239-3.62-1.558
	c0.055,2.057,0.574,5.099,1.551,6.49c-0.146,2.999-2.54,3.673-3.879,5.452c-2.863,3.806-5.871,7.29-8.532,11.422
	c-2.898-0.073-2.256-1.829-2.844-4.153c-0.604-2.387,0.106-5.466-0.517-8.307c-0.601-2.734-0.746-7.142-0.518-9.605
	c2.775-1.359,5.048-3.295,7.499-4.932c1.739-1.162,3.688-1.965,5.171-3.375h0.258v-0.52c-2.098,0.386-9.359,5.094-12.411,2.336
	c-2.698-0.936-4.242-10.328-3.879-14.018c0.604-0.605,1.207-1.211,1.81-1.817h0.259c-0.862-0.26-1.724-0.519-2.585-0.779v-0.52
	c3.862-1.023,8.904-1.86,13.704-1.817v-0.779c-1.208-0.443-4.477-0.036-5.688-0.779H6.832v-0.258
	c0.676-0.208,0.612-0.322,1.292-0.52v-0.778c-0.923,0.005-1.748-0.058-2.327-0.26c-0.46-1.667-2.634-9.753-1.035-12.201
	c-0.106-3.515,0.901-2.93,2.586-4.413c0.209-0.267,0.096-0.062,0.258-0.519c-0.325-0.144-0.78-0.312-1.034-0.519
	c-0.203-0.161-0.065-0.009,0-0.26c0.917-1.311,2.543-1.179,3.878-2.077h0.259c-0.664-1.004-1.601-0.07-2.844-0.519
	c-0.603-0.52-1.207-1.039-1.81-1.558c0.512-3.708,1.881-7.453,2.845-10.903c0.431-2.595,0.862-5.192,1.292-7.788
	c0.605-1.416,1.996-2.235,2.844-3.375c6.069-0.133,9.318,6.106,9.567,11.941h0.517c-0.011-6.361-2.796-10.877-7.24-12.72
	C9.551-1.992,3.037,4.149,1.401,8.163c-0.835,2.048,0.032,4.523-0.517,7.009c-0.804,3.635-0.497,11.509,0.259,15.056v4.154
	c1.05,4.713,0.189,9.922,1.292,14.797c1.828,8.08,1.833,16.537,3.62,24.402c0.705,3.101,0.398,6.258,1.035,9.085
	c1.176,5.229,0.425,11.041,1.551,16.095c0.269,1.205-0.022,2.732,0.259,3.634c-6.223,3.672-10.931,17.633-8.016,28.037
	c3.342,11.926,9.235,20.434,16.807,28.035c1.828,1.836,3.503,3.989,5.688,5.451c0.517,12.027,1.035,24.057,1.552,36.083H37.75
	c0,0,3-10.249,6.25-7.999c3.25,2.25,1.5,7.999,1.5,7.999h5.289c-0.582-8.515-0.404-16.776,1.551-23.882
	c0.517-1.879,0.324-3.805,1.293-5.192c0.381-0.707,0.771-0.749,1.81-0.778v-0.521c-0.862-0.173-1.724-0.347-2.586-0.519
	c0.726-1.155,3.823-1.008,4.913-1.817h0.517v-0.779c-0.806-0.157-0.629-0.044-1.034-0.519c-0.203-0.162-0.065-0.01,0-0.26
	c0.661-1.17,2.417-1.166,3.62-1.817c2.224-1.203,4.889-2.854,6.98-4.153v-0.519c-2.125,0.368-3.092,1.668-5.43,1.817
	c0.199-2.586,0.545-5.041,0.517-8.047c-1.467,0.414-1.584,1.735-2.328,2.854c-2.169,3.268-3.138,7.747-9.05,7.788
	c-2.841-3.131-6.679-5.523-11.118-7.01c-2.473-0.826-4.98-0.599-7.24-1.558c-1.586-0.673-2.781-1.996-4.138-2.854
	c-0.337-1.406-0.471-2.531-0.258-4.153c3.68-1.304,9.821-7.427,10.342-11.683c-2.796,0.572-4.917,3.672-6.981,5.192
	c-1.349,0.994-2.77,1.595-4.137,2.597c-2.084,1.525-3.986,4.812-8.533,3.114c-1.777-0.663-2.952-2.372-4.396-3.375
	c-0.137-1.881-0.124-3.247,1.035-4.413c1.023-1.031,2.506-1.086,3.879-1.816c1.584-0.846,3.356-2.272,4.913-3.375
	c2.748-1.945,4.618-5.043,7.24-7.01v-0.778c-1.738,0.585-3.199,1.965-4.654,2.856c-1.407,0.859-3.131,1.088-4.396,2.075h-0.517
	c0.586-1.723,1.938-2.261,3.103-3.375c2.705-2.586,5.388-5.993,8.532-8.047v-0.519c-3.136,0.926-5.679,3.807-8.274,5.451
	c-3.015,1.91-6.039,4.039-9.05,5.711c-1.464,0.812-3.12,1.084-4.396,2.078h-0.258c0.246-2.205,2.218-2.599,3.62-3.635
	c2.811-2.079,5.242-4.896,8.274-6.75v-0.52c-2.515,0.517-4.55,2.732-6.981,3.635c-6.543,2.427-13.724-1.182-14.998-6.489
	c-0.733-3.056,1.815-6.385,2.844-8.048c1.992-3.217,4.09-6.264,6.723-8.826c2.183-2.125,4.992-3.375,6.723-5.971h3.878
	c-0.403-1.104-1.334-1.335-2.068-2.076c-0.196-0.279-0.163-0.24-0.258-0.779c2.304,0.149,3.495,1.151,5.688,1.298
	c-0.293-1.199-2.24-2.518-3.362-2.855c0.133-1.543,0.943-3.497,1.81-4.413c0.266-0.209,0.064-0.096,0.517-0.26
	c1.764,1.532,3.359,3.562,5.171,4.932c1.026,0.776,2.317,1.333,3.103,2.336h0.776c-0.581-1.675-5.578-8.349-6.982-9.345v-0.779
	c3.152,0.246,7.66,4.859,9.05,7.009h0.517c-0.661-2.016-4.167-5.823-5.688-7.269c0.084-0.599,0.12-0.645,0.258-1.038
	c2.337,0.33,8.613,3.703,9.826,5.192h0.517c-0.163-0.796-4.383-5.233-5.171-5.971c0.057-1.377,0.356-1.944,0.775-2.855
	c5.679-0.977,9.125,7.813,17.066,7.788c1.991-1.917,4.769-2.983,6.723-4.932c1.381-1.378,3.115-3.279,4.137-4.933
	c0.472-0.761,0.507-1.671,1.034-2.336v-0.779c-1.979,0.723-3.315,3.452-4.654,4.932c-1.684,1.862-4.145,2.923-5.947,4.673
	c-5.283,0.108-7.479-2.902-9.309-6.23c-0.549-0.998-1.826-2.409-1.293-4.413c0.803-3.019,7.621-8.96,10.602-9.864
	c2.164-0.896,4.955,2.207,6.981,2.596v-1.038c1.864,0.157,3.833,1.601,4.653,2.855h0.518c-0.145-2.117-1.073-3.414-2.327-4.413
	c0.05-6.786,5.761-11.293,12.929-8.307c5.707,2.378,7.895,7.494,10.084,13.499c0.52,1.424,2.121,4.747,1.551,6.75
	c-0.375,1.318-1.617,2.56-2.326,3.634c-0.446,0.167-0.253,0.051-0.518,0.26c-0.67-0.052-0.877-0.115-1.293-0.26
	c-0.086-0.605-0.172-1.211-0.259-1.817c-1.541,0.434-1.651,2.598-2.327,3.894c-0.886,1.701-1.957,3.619-3.103,5.191
	c-0.862,0.865-1.724,1.731-2.586,2.596c-1.464,0.01-1.599-0.087-2.068-1.039h-0.517c-0.057,7.823-0.227,14.329-2.586,19.729
	c-0.66,1.51-1.998,2.792-2.844,4.153c-0.86-0.002-1.539-0.076-2.068-0.261c-0.627-3.493,0.826-6.116,1.293-8.825
	c0.398-2.313-2.865-4.909-1.811-8.827c0.438-1.623,1.721-2.851,2.327-4.153c0.994-2.136,1.468-4.838,2.069-7.009
	c1.029-3.712,0.943-10.164-1.553-11.941v-0.52h-0.518c0.109,2.031,1.062,4.103,0.518,6.49C66.355,89.796,56.97,98.183,42.252,99.797
	v0.778c1.284-0.019,2.607-0.011,3.361,0.52h0.518c-0.956,3.53-3.508,8.268-5.43,11.163c-0.529,0.797-1.411,1.343-1.81,2.336h-0.259
	c0.756,1.791,4.652,2.072,6.464,2.854c4.118,1.781,12.793,5.734,14.222,9.865h0.775c-0.027-0.658-0.031-0.963-0.258-1.299v-3.375
	h0.258c2.55,5.198,5.434,12.03,5.43,19.471h0.518c1.427-3.064,1.958-7.221,3.621-10.125c0.77,0.117,0.873,0.132,1.293,0.52h0.518
	v-3.115c0.071-0.164,3.651-4.117,4.137-4.673v-0.26c0.476-0.396,1.179-0.208,1.552,0c1.375,0.504,1.456,1.882,2.327,2.854v0.26
	h0.518c-0.098-2.315-0.684-5.297-1.811-6.75c0.777-2.174,2.754-3.047,3.104-5.971h3.878v-0.779
	c-1.978-0.332-3.261-1.399-5.171-1.816c-0.259-7.009,1.985-11.313,9.566-11.163v-0.779c-2.24-0.433-4.481-0.866-6.723-1.298
	c-0.435-0.909-0.812-2.003,0-2.856c0.547-1.557,3.307-2.438,4.914-2.855c-0.111-4.353-0.691-9.31,1.293-12.201
	c0.896-1.306,2.916-2.09,4.137-3.115c1.522,0.009,2.133,0.273,2.845,1.038h0.774c-0.164-0.579-0.19-0.686-0.517-1.038v-0.779
	c0.948,0.26,1.896,0.52,2.845,0.779h1.034v-0.52c-4.821-2.219-8.896-6.66-5.171-13.239c0.775,0.087,1.551,0.173,2.327,0.26
	c-0.16-0.962-0.413-1.354-1.035-1.817c0.05-0.87,0.138-1.56,0.517-2.077v-0.514c1.846,0.082,7.047,0.743,8.274,1.558h1.292v-0.52
	c-2.959-1.41-6.891-2.767-10.602-3.115c-0.582-4.66,1.875-7.417,3.361-11.422c0.424-1.137,0.596-4.126,1.551-4.673h3.104v-0.519
	c-0.947-0.433-1.896-0.866-2.844-1.298c-0.086-0.086-0.172-0.173-0.26-0.259h0.26c0.086-0.173,0.172-0.347,0.258-0.52
	c2.094-0.12,5.833-0.628,7.499,0.52h1.812c-0.908-1.504-5.974-1.822-7.5-3.115c-0.332-0.556,1.099-3.852,1.551-4.933
	c0.607-1.448,1.639-3.329,2.068-4.932v-4.932c0.741-3.278,1.12-7.043,4.137-8.047c3.019-1.983,8.168,2.968,10.084,4.153
	c1.797,8.011,0.113,14.934-1.81,21.806c-0.804,2.874-0.434,5.558-1.293,8.566c-0.907,3.176-2.366,6.858-3.362,10.124
	c-1.045,3.436-1.426,7.024-2.326,10.384c-1.067,3.979-0.549,15.728-3.104,17.652c-0.086,0.086-0.172,0.173-0.259,0.26
	c-1.166-1.779-3.198-2.669-4.654-4.154h-0.517c0.631,2.202,3.691,2.507,4.396,4.932c0.43,5.278,0.861,10.558,1.293,15.835
	c0.897,3.987,0.651,9.022,1.551,12.979v3.375c0.408,1.822,1.213,5.714,0.774,7.788c-1.771,8.364-4.235,18.922-9.308,23.882
	c-0.661,0.247-0.77-0.303-1.811-0.52v1.299c-0.453-0.289-0.932-0.65-1.293-1.039h-0.258c0.094,1.953,0.814,4.941,1.811,6.23
	c-0.051,0.674-0.114,0.883-0.258,1.299c-2.267-0.201-3.902-3.812-4.138-5.972h-0.776c0.088,1.851,0.465,3.599,0.776,5.19
	c-0.308,0.295-0.555,0.66-0.776,1.039c-0.599-0.059-0.729-0.051-1.033-0.258h-0.774c0.663,2.012,3.479,3.182,6.206,3.114
	c0.939,2.827-0.204,6.511,0.518,9.865c0.453,2.11-0.265,5.353,0.258,7.788c0.551,2.564,0.244,6.339,0.259,9.345
	c0.016,3.472,0.284,7.345,0.258,11.163h3.362c-0.174-7.182-0.346-14.365-0.518-21.546c0-2.677-0.234-6.063,0.258-8.308
	c0.797-3.627-0.121-7.312,0.776-10.644c1.065-3.955,2.927-7.565,4.396-11.162c2.357-5.774,3.4-12.229,4.914-18.69
	c0.703-3-0.221-9.633-0.775-12.201c-0.346-6.143-0.689-12.288-1.035-18.431c-0.259-1.146-1.066-9.131-0.775-10.125
	c0.137-0.468,0.856-1.284,1.033-1.817c0.518-2.942,1.034-5.884,1.551-8.826c0.346-3.894,0.69-7.788,1.035-11.682
	c1.811-7.354,3.62-14.711,5.43-22.065C122.146,40.292,126.036,28.877,124.738,23.218z M59.32,61.12
	c-10.325-0.712-17.94,7.697-22.496,13.759c-0.566,0.753-1.729,1.044-2.327,1.817h-1.034c-0.258-1.817-0.517-3.634-0.776-5.452
	c-0.917-4.228,1.607-12.09,3.103-14.277c3.932-5.747,15.833-4.451,21.72-1.038c1.21,0.701,1.711,2.055,2.585,3.115
	C59.996,60.23,59.747,60.386,59.32,61.12z M65.785,113.816c-1.93,1.016-5.018,3.551-8.533,2.597
	c-4.063-1.103-6.689-8.823-4.396-14.278c1.005-2.389,3.129-2.772,5.172-4.153C65.763,97.944,66.134,106.556,65.785,113.816z"/>
</svg>
