<?xml version="1.0" encoding="utf-8"?>
<!-- Generator: Adobe Illustrator 15.0.2, SVG Export Plug-In  -->
<!DOCTYPE svg PUBLIC "-//W3C//DTD SVG 1.1//EN" "http://www.w3.org/Graphics/SVG/1.1/DTD/svg11.dtd" [
	<!ENTITY ns_flows "http://ns.adobe.com/Flows/1.0/">
]>
<svg version="1.1"
	 xmlns="http://www.w3.org/2000/svg" xmlns:xlink="http://www.w3.org/1999/xlink" xmlns:a="http://ns.adobe.com/AdobeSVGViewerExtensions/3.0/"
	 x="0px" y="0px" width="126px" height="201px" viewBox="0 -1 126 201" overflow="visible" enable-background="new 0 -1 126 201"
	 xml:space="preserve">
<defs>
</defs>
<g>
	<g>
		<path fill-rule="evenodd" clip-rule="evenodd" fill="#EE9BC3" d="M124.739,23.217c-1.038-4.531-1.737-8.599-4.913-10.903
			c-3.813-2.767-10.873-2.059-13.446,1.298c-3.089,4.031-5.049,9.052-6.723,14.538c-1.068,3.501-0.969,7.079-2.068,10.383
			c-1.674,5.03-3.354,10.297-5.43,15.316c-0.882,2.132-2.104,4.553-2.586,7.009c-2.537-0.937-4.239-4.225-6.464-5.711
			c-4.728-3.157-12.783-4.064-18.1-0.778c-1.317,0.814-2.52,2.027-3.879,2.855c-0.086,0.086-0.172,0.173-0.258,0.26
			c-0.667-1-1.618-1.372-2.586-2.077c-6.334-4.613-13.535-5.911-20.944-1.298c-1.346,0.838-2.759,1.292-3.62,2.596
			c-2.128-0.566-3.244-6.126-4.138-8.307c-1.14-2.781-2.53-6.02-3.361-9.086c-0.996-3.675-0.737-7.859-1.551-11.422
			c-0.777-3.397-0.155-11.364-1.552-13.759v-0.259c-0.736,0.561,0.232,7.231,0.259,9.345c0.083,6.464,0.746,12.242,2.586,17.912
			c0.511,1.575,0.41,3.254,1.293,4.413c-0.208,1.049-0.542,1.137-1.293,1.558c0.485,1.021,1.553,1.116,2.327,1.817
			c0.517,1.904,1.034,3.808,1.551,5.711c0.79,2.151,2.304,4.642,2.844,6.75c0.496,1.936-2.904,11.744-3.62,13.239
			c-1.886-0.205-1.992-1.239-3.62-1.558c0.055,2.057,0.574,5.099,1.551,6.49c-0.146,2.999-2.54,3.673-3.879,5.452
			c-2.863,3.806-5.871,7.29-8.532,11.422c-2.898-0.073-2.256-1.829-2.844-4.153c-0.604-2.387,0.106-5.466-0.517-8.307
			c-0.601-2.734-0.746-7.142-0.518-9.605c2.775-1.359,5.048-3.295,7.499-4.932c1.739-1.162,3.688-1.965,5.171-3.375h0.258v-0.52
			c-2.098,0.386-9.359,5.094-12.411,2.336c-2.698-0.936-4.242-10.328-3.879-14.018c0.604-0.605,1.207-1.211,1.81-1.817h0.259
			c-0.862-0.26-1.724-0.519-2.585-0.779v-0.52c3.862-1.023,8.904-1.86,13.704-1.817v-0.779c-1.208-0.443-4.477-0.036-5.688-0.779
			H6.832V47.1c0.676-0.208,0.612-0.322,1.292-0.52v-0.778c-0.923,0.005-1.748-0.058-2.327-0.26
			c-0.46-1.667-2.634-9.753-1.035-12.201c-0.106-3.515,0.901-2.93,2.586-4.413c0.209-0.267,0.096-0.063,0.258-0.519
			c-0.325-0.144-0.78-0.312-1.034-0.519c-0.203-0.161-0.065-0.009,0-0.26c0.917-1.311,2.543-1.179,3.878-2.077h0.259
			c-0.664-1.004-1.601-0.07-2.844-0.519c-0.603-0.52-1.207-1.039-1.81-1.558c0.512-3.708,1.881-7.453,2.845-10.903
			c0.431-2.595,0.862-5.192,1.292-7.788c0.605-1.416,1.996-2.235,2.844-3.375c6.069-0.133,9.318,6.106,9.567,11.941h0.517
			c-0.011-6.361-2.796-10.877-7.24-12.72C9.552-1.993,3.037,4.148,1.402,8.161c-0.835,2.048,0.032,4.523-0.517,7.009
			c-0.804,3.635-0.497,11.509,0.259,15.056v4.154c1.05,4.713,0.189,9.922,1.292,14.797c1.828,8.08,1.833,16.537,3.62,24.402
			c0.705,3.101,0.398,6.258,1.035,9.085c1.176,5.229,0.425,11.041,1.551,16.095c0.269,1.205-0.022,2.732,0.259,3.634
			c-6.223,3.672-10.931,17.633-8.016,28.036c3.342,11.927,9.235,20.434,16.807,28.036c1.828,1.836,3.503,3.989,5.688,5.451
			c0.517,12.027,1.035,24.057,1.552,36.083h25.857c-0.582-8.514-0.404-16.777,1.551-23.882c0.517-1.879,0.324-3.804,1.293-5.192
			c0.381-0.707,0.771-0.749,1.81-0.779v-0.52c-0.862-0.173-1.724-0.346-2.586-0.519c0.726-1.155,3.823-1.008,4.913-1.817h0.517
			v-0.779c-0.806-0.157-0.629-0.044-1.034-0.519c-0.203-0.162-0.065-0.009,0-0.26c0.661-1.169,2.417-1.166,3.62-1.817
			c2.224-1.203,4.888-2.854,6.981-4.153v-0.519c-2.126,0.368-3.093,1.668-5.43,1.817c0.199-2.586,0.545-5.04,0.517-8.047
			c-1.467,0.415-1.584,1.736-2.328,2.855c-2.169,3.268-3.138,7.747-9.05,7.788c-2.841-3.13-6.679-5.523-11.118-7.009
			c-2.473-0.827-4.98-0.599-7.24-1.558c-1.586-0.673-2.781-1.996-4.138-2.855c-0.337-1.406-0.471-2.531-0.258-4.153
			c3.68-1.303,9.821-7.426,10.342-11.682c-2.796,0.572-4.917,3.671-6.981,5.192c-1.349,0.994-2.77,1.594-4.137,2.596
			c-2.084,1.526-3.986,4.812-8.533,3.115c-1.777-0.663-2.952-2.372-4.396-3.375c-0.137-1.881-0.124-3.247,1.035-4.413
			c1.023-1.031,2.506-1.086,3.879-1.817c1.584-0.845,3.356-2.272,4.913-3.375c2.748-1.945,4.618-5.043,7.24-7.009v-0.779
			c-1.738,0.585-3.199,1.965-4.654,2.856c-1.407,0.86-3.131,1.088-4.396,2.076h-0.517c0.586-1.723,1.938-2.261,3.103-3.375
			c2.705-2.586,5.388-5.993,8.532-8.047v-0.519c-3.136,0.926-5.679,3.807-8.274,5.452c-3.015,1.91-6.039,4.039-9.05,5.711
			c-1.464,0.812-3.12,1.084-4.396,2.077h-0.258c0.246-2.204,2.218-2.598,3.62-3.634c2.811-2.079,5.242-4.896,8.274-6.75v-0.519
			c-2.515,0.516-4.55,2.732-6.981,3.634c-6.543,2.427-13.724-1.181-14.998-6.489c-0.733-3.056,1.815-6.385,2.844-8.048
			c1.992-3.217,4.09-6.264,6.723-8.826c2.183-2.125,4.992-3.375,6.723-5.971h3.878c-0.403-1.104-1.334-1.335-2.068-2.076
			c-0.196-0.279-0.163-0.24-0.258-0.779c2.304,0.149,3.495,1.151,5.688,1.298c-0.293-1.199-2.24-2.518-3.362-2.855
			c0.133-1.543,0.943-3.497,1.81-4.413c0.266-0.209,0.064-0.096,0.517-0.26c1.764,1.532,3.359,3.562,5.171,4.932
			c1.026,0.776,2.317,1.333,3.103,2.336h0.776c-0.581-1.675-5.578-8.349-6.982-9.345v-0.779c3.152,0.246,7.66,4.859,9.05,7.009
			h0.517c-0.661-2.016-4.167-5.823-5.688-7.269c0.084-0.599,0.12-0.645,0.258-1.038c2.337,0.33,8.613,3.703,9.826,5.192h0.517
			c-0.163-0.796-4.383-5.233-5.171-5.971c0.057-1.377,0.356-1.944,0.775-2.855c5.679-0.977,9.125,7.813,17.066,7.788
			c1.991-1.917,4.769-2.983,6.723-4.932c1.381-1.378,3.114-3.279,4.137-4.933c0.471-0.761,0.507-1.671,1.034-2.336v-0.779
			c-1.979,0.723-3.315,3.452-4.654,4.932c-1.684,1.862-4.145,2.923-5.947,4.673c-5.283,0.108-7.479-2.902-9.309-6.23
			c-0.549-0.998-1.826-2.409-1.293-4.413c0.803-3.019,7.621-8.96,10.602-9.864c2.164-0.896,4.955,2.207,6.981,2.596v-1.038
			c1.864,0.157,3.833,1.601,4.654,2.855h0.517c-0.144-2.117-1.073-3.414-2.327-4.413c0.05-6.786,5.761-11.293,12.928-8.307
			c5.707,2.378,7.895,7.494,10.084,13.499c0.52,1.424,2.121,4.747,1.552,6.75c-0.375,1.318-1.618,2.56-2.327,3.634
			c-0.446,0.167-0.253,0.051-0.517,0.26c-0.671-0.052-0.878-0.115-1.293-0.26c-0.086-0.605-0.172-1.211-0.259-1.817
			c-1.541,0.434-1.652,2.598-2.327,3.894c-0.886,1.701-1.958,3.619-3.103,5.191c-0.862,0.865-1.724,1.731-2.586,2.596
			c-1.463,0.01-1.598-0.087-2.068-1.039h-0.517c-0.056,7.823-0.226,14.329-2.586,19.729c-0.66,1.51-1.998,2.792-2.844,4.153
			c-0.86-0.002-1.539-0.075-2.068-0.26c-0.627-3.493,0.826-6.117,1.293-8.826c0.398-2.313-2.865-4.908-1.81-8.826
			c0.437-1.623,1.721-2.851,2.327-4.153c0.994-2.136,1.467-4.838,2.069-7.009c1.029-3.712,0.944-10.164-1.552-11.941v-0.52h-0.518
			c0.109,2.031,1.062,4.103,0.518,6.49c-3.047,13.362-12.433,21.748-27.15,23.363v0.778c1.284-0.019,2.607-0.011,3.361,0.52h0.518
			c-0.956,3.53-3.508,8.267-5.43,11.163c-0.529,0.797-1.411,1.342-1.81,2.336h-0.259c0.756,1.791,4.652,2.072,6.464,2.855
			c4.118,1.781,12.793,5.733,14.222,9.864h0.775c-0.027-0.657-0.031-0.962-0.258-1.298v-3.375h0.258
			c2.55,5.198,5.433,12.03,5.43,19.47h0.517c1.427-3.064,1.958-7.22,3.621-10.124c0.77,0.116,0.873,0.131,1.293,0.519h0.517v-3.115
			c0.072-0.165,3.652-4.117,4.138-4.673v-0.26c0.475-0.396,1.178-0.208,1.551,0c1.375,0.504,1.456,1.882,2.327,2.855v0.26h0.518
			c-0.098-2.316-0.684-5.298-1.81-6.75c0.777-2.175,2.753-3.047,3.103-5.971h3.878v-0.779c-1.978-0.332-3.261-1.4-5.171-1.817
			c-0.259-7.009,1.985-11.313,9.567-11.163v-0.779c-2.241-0.433-4.482-0.866-6.723-1.298c-0.435-0.909-0.812-2.003,0-2.856
			c0.547-1.557,3.306-2.437,4.913-2.855c-0.11-4.353-0.691-9.31,1.293-12.201c0.896-1.306,2.916-2.09,4.137-3.115
			c1.523,0.009,2.133,0.273,2.845,1.038h0.775c-0.164-0.579-0.191-0.686-0.517-1.038v-0.779c0.948,0.26,1.896,0.52,2.844,0.779
			h1.035v-0.52c-4.822-2.219-8.896-6.66-5.171-13.239c0.775,0.087,1.551,0.173,2.327,0.26c-0.16-0.962-0.413-1.354-1.035-1.817
			c0.049-0.87,0.137-1.56,0.517-2.077V60.08c1.845,0.082,7.047,0.743,8.274,1.558h1.292v-0.52c-2.959-1.41-6.891-2.767-10.601-3.115
			c-0.583-4.66,1.874-7.417,3.361-11.422c0.423-1.137,0.595-4.126,1.551-4.673h3.103v-0.519c-0.948-0.433-1.896-0.866-2.844-1.298
			c-0.086-0.086-0.172-0.173-0.259-0.259h0.259c0.086-0.173,0.172-0.347,0.258-0.52c2.094-0.12,5.833-0.628,7.499,0.52h1.811
			c-0.907-1.504-5.973-1.822-7.499-3.115c-0.333-0.556,1.098-3.852,1.551-4.933c0.607-1.448,1.638-3.329,2.068-4.932v-4.932
			c0.741-3.278,1.12-7.043,4.137-8.047c3.018-1.983,8.167,2.968,10.084,4.153c1.796,8.011,0.112,14.934-1.81,21.806
			c-0.804,2.874-0.434,5.558-1.293,8.566c-0.908,3.176-2.366,6.858-3.362,10.124c-1.046,3.436-1.426,7.024-2.327,10.384
			c-1.067,3.979-0.548,15.728-3.103,17.652c-0.086,0.086-0.172,0.173-0.259,0.26c-1.166-1.779-3.198-2.669-4.654-4.154h-0.517
			c0.631,2.202,3.692,2.507,4.396,4.932c0.431,5.278,0.862,10.558,1.293,15.835c0.898,3.988,0.652,9.023,1.551,12.979v3.375
			c0.409,1.823,1.214,5.714,0.775,7.788c-1.77,8.364-4.236,18.922-9.308,23.882c-0.661,0.247-0.77-0.302-1.81-0.519v1.298
			c-0.454-0.289-0.932-0.65-1.293-1.038h-0.258c0.093,1.953,0.814,4.94,1.81,6.23c-0.051,0.674-0.114,0.882-0.258,1.298
			c-2.266-0.201-3.902-3.812-4.137-5.971h-0.776c0.088,1.85,0.465,3.598,0.776,5.191c-0.307,0.294-0.555,0.66-0.776,1.039
			c-0.599-0.059-0.729-0.051-1.034-0.259H93.71c0.663,2.013,3.48,3.182,6.206,3.115c0.94,2.827-0.204,6.51,0.517,9.865
			c0.454,2.11-0.264,5.353,0.258,7.788c0.551,2.565,0.245,6.339,0.259,9.345c0.016,3.471,0.285,7.344,0.258,11.163h3.362
			c-0.173-7.181-0.345-14.365-0.518-21.546c0-2.677-0.233-6.064,0.259-8.307c0.796-3.627-0.122-7.313,0.776-10.644
			c1.065-3.955,2.927-7.565,4.396-11.162c2.357-5.774,3.4-12.23,4.913-18.691c0.703-3-0.22-9.632-0.775-12.201
			c-0.345-6.143-0.69-12.288-1.035-18.431c-0.259-1.146-1.066-9.131-0.776-10.125c0.137-0.468,0.857-1.284,1.034-1.817
			c0.518-2.942,1.034-5.884,1.551-8.826c0.345-3.894,0.69-7.788,1.035-11.682c1.81-7.354,3.62-14.711,5.43-22.065
			C122.146,40.291,126.036,28.876,124.739,23.217z M59.321,61.118c-10.325-0.712-17.94,7.697-22.496,13.759
			c-0.566,0.753-1.729,1.044-2.327,1.817h-1.034c-0.258-1.817-0.517-3.634-0.776-5.452c-0.917-4.228,1.607-12.09,3.103-14.277
			c3.932-5.747,15.833-4.451,21.72-1.038c1.21,0.701,1.711,2.055,2.585,3.115C59.996,60.229,59.747,60.385,59.321,61.118z
			 M65.785,113.815c-1.93,1.015-5.018,3.55-8.533,2.596c-4.063-1.103-6.689-8.823-4.396-14.278c1.005-2.389,3.129-2.772,5.172-4.153
			C65.764,97.943,66.135,106.554,65.785,113.815z"/>
	</g>
</g>
</svg>
